/* XPM */
static char *RealTimeBattle[] = {
/* width height num_colors chars_per_pixel */
"    45    49        3            1",
/* colors */
". c #000000",
"# c #00fa36",
"  c None",
/* pixels */
"....                                         ",
"....                                         ",
"....                                         ",
"....                                         ",
"                                             ",
"                                             ",
"                                             ",
"                                             ",
"            ....                             ",
"            ....                             ",
"            ....                             ",
"            ....                             ",
"                                             ",
"                                             ",
"                                             ",
"                                             ",
"                                             ",
"                                             ",
"                     ....                    ",
"                     ....                    ",
"                     ....                    ",
"                     ....                    ",
"                                             ",
"                           ##########        ",
"                         ##############      ",
"                        ####.###########     ",
"                      #####..#############   ",
"                      ####....############   ",
"                     ####.....#############  ",
"                    #####......###.######### ",
"                    ######.....###..######## ",
"                   #######......##..#########",
"                   ########.....##..#########",
"                   ########......#.##########",
"                   #########.......##########",
"                   #########....#..##########",
"                   ######...#..##.###########",
"                   ######......##.###########",
"                   ##########.....###########",
"                   ##########################",
"                   ##########################",
"                    ######################## ",
"                    ######################## ",
"                     ######################  ",
"                      ####################   ",
"                      ####################   ",
"                        ################     ",
"                         ##############      ",
"                           ##########        "
};
